<?xml version="1.0" encoding="UTF-8"?>
<svg xmlns="http://www.w3.org/2000/svg" xmlns:xlink="http://www.w3.org/1999/xlink" id="Layer_1" data-name="Layer 1" width="462.63" height="147.87" viewBox="0 0 462.63 147.87">
  <defs>
    <linearGradient id="Degradado_sin_nombre_8" x1="180.68" y1="408.96" x2="180.68" y2="409" gradientUnits="userSpaceOnUse">
      <stop offset="0" stop-color="#010101"></stop>
      <stop offset="1" stop-color="#010101" stop-opacity="0"></stop>
    </linearGradient>
    <linearGradient id="Degradado_sin_nombre_8-2" x1="77.12" y1="361.53" x2="77.12" y2="361.57" gradientTransform="translate(151.69 752.14) rotate(180)" xlink:href="#Degradado_sin_nombre_8"></linearGradient>
  </defs>
  <title>logo-white</title>
  <path d="M201.56,350.09v66.32a43.77,43.77,0,0,0-5.47-16.91c-10.36-17.59-30.68-17-31.48-16.93h0c-.47,0-1-.05-1.42-.05H127.62V325.85h49.7A24.25,24.25,0,0,1,201.56,350.09Z" transform="translate(-53.69 -325.85)" style="fill:#fff"></path>
  <path d="M201.56,416.41v33.08a24.25,24.25,0,0,1-18.85,23.62,23.81,23.81,0,0,1-5.39.61H134.93l20-27.9,18.77-26.24s0,0,0-.06l4.95-6.91a18,18,0,0,0,2-3.6.06.06,0,0,0,0,0,18.37,18.37,0,0,0,.87-12.31,18.92,18.92,0,0,0-16.94-14.09C165.61,382.54,196.76,357.59,201.56,416.41Z" transform="translate(-53.69 -325.85)" style="fill:#fff"></path>
  <path d="M180.7,409l0,0a.06.06,0,0,0,0,0Z" transform="translate(-53.69 -325.85)" style="fill:url(#Degradado_sin_nombre_8)"></path>
  <path d="M53.69,449.49V383.16a43.66,43.66,0,0,0,5.47,16.91C69.52,417.66,89.84,417,90.64,417h0c.47,0,1,.06,1.42.06h35.55v56.66H77.93A24.24,24.24,0,0,1,53.69,449.49Z" transform="translate(-53.69 -325.85)" style="fill:#fff"></path>
  <path d="M53.69,383.16V350.09a24.25,24.25,0,0,1,18.85-23.63,23.81,23.81,0,0,1,5.39-.61h42.39l-20,27.9L81.59,380s0,0,0,.06L76.62,387a18,18,0,0,0-2,3.6.06.06,0,0,0,0,0,18.4,18.4,0,0,0-.87,12.32,19.14,19.14,0,0,0,17,14.29C89.66,417.24,57.24,435.94,53.69,383.16Z" transform="translate(-53.69 -325.85)" style="fill:#fff"></path>
  <path d="M74.55,390.6l0,0a.06.06,0,0,0,0,0Z" transform="translate(-53.69 -325.85)" style="fill:url(#Degradado_sin_nombre_8-2)"></path>
  <path d="M250.86,394.58h20.38v26.64a59.59,59.59,0,0,1-8.39,2.16,55.55,55.55,0,0,1-9.9.79q-11.52,0-17.71-6.76t-6.19-19.73a29.39,29.39,0,0,1,3.13-14,21.82,21.82,0,0,1,9.11-9.14,30.28,30.28,0,0,1,14.61-3.24,38.67,38.67,0,0,1,15.27,3.16l-3.6,8.72a26.5,26.5,0,0,0-5.4-2,24.86,24.86,0,0,0-6.34-.79,15.32,15.32,0,0,0-8.24,2.16,14.34,14.34,0,0,0-5.4,6.08,20.84,20.84,0,0,0-1.91,9.25,26.64,26.64,0,0,0,1.37,8.93,11.65,11.65,0,0,0,12,8.28,31,31,0,0,0,3.92-.21c1.08-.15,2.08-.31,3-.51V403.65h-9.72Z" transform="translate(-53.69 -325.85)" style="fill:#fff"></path>
  <path d="M302.41,383.42c.53,0,1.16,0,1.88.07a11.45,11.45,0,0,1,1.72.22l-.79,10.08a8.9,8.9,0,0,0-1.47-.25,16.34,16.34,0,0,0-1.7-.11,14.42,14.42,0,0,0-5.25,1,8.79,8.79,0,0,0-4.07,3.13,10,10,0,0,0-1.55,5.91v20H280.45V384.14h8.14l1.58,6.63h.51a16.16,16.16,0,0,1,4.75-5.19A11.7,11.7,0,0,1,302.41,383.42Z" transform="translate(-53.69 -325.85)" style="fill:#fff"></path>
  <path d="M325.74,383.42q8.14,0,12.89,4.65t4.75,13.21v5.18H318a10.14,10.14,0,0,0,2.7,7.13,9.5,9.5,0,0,0,7.09,2.59,29.38,29.38,0,0,0,6.91-.75,34.09,34.09,0,0,0,6.41-2.34v8.28a25.2,25.2,0,0,1-6.08,2.12,37.45,37.45,0,0,1-7.74.68A23.71,23.71,0,0,1,316.89,422a16.37,16.37,0,0,1-7.13-6.66,22.09,22.09,0,0,1-2.59-11.23,25.11,25.11,0,0,1,2.34-11.49,15.82,15.82,0,0,1,6.51-6.87A19.74,19.74,0,0,1,325.74,383.42Zm.07,7.63a7,7,0,0,0-5.14,2q-2.06,2-2.42,6.26H333.3a9.81,9.81,0,0,0-1.87-5.94Q329.63,391,325.81,391.05Z" transform="translate(-53.69 -325.85)" style="fill:#fff"></path>
  <path d="M366.13,383.42q8.14,0,12.89,4.65t4.75,13.21v5.18H358.43a10.19,10.19,0,0,0,2.7,7.13,9.5,9.5,0,0,0,7.09,2.59,29.38,29.38,0,0,0,6.91-.75,33.84,33.84,0,0,0,6.41-2.34v8.28a25.2,25.2,0,0,1-6.08,2.12,37.45,37.45,0,0,1-7.74.68A23.71,23.71,0,0,1,357.28,422a16.37,16.37,0,0,1-7.13-6.66,22.09,22.09,0,0,1-2.59-11.23,25.11,25.11,0,0,1,2.34-11.49,15.82,15.82,0,0,1,6.51-6.87A19.79,19.79,0,0,1,366.13,383.42Zm.08,7.63a7.07,7.07,0,0,0-5.15,2c-1.37,1.34-2.18,3.43-2.41,6.26h15a9.81,9.81,0,0,0-1.87-5.94Q370,391,366.21,391.05Z" transform="translate(-53.69 -325.85)" style="fill:#fff"></path>
  <path d="M412.64,383.42q6.35,0,10.16,3.42t3.81,11v25.63H415.88v-23c0-2.84-.5-5-1.51-6.38a5.53,5.53,0,0,0-4.82-2.12q-4.91,0-6.7,3.35t-1.8,9.61v18.5H390.32V384.14h8.21l1.44,5h.58a10.82,10.82,0,0,1,5.15-4.39A17.86,17.86,0,0,1,412.64,383.42Z" transform="translate(-53.69 -325.85)" style="fill:#fff"></path>
  <path d="M440.87,368.73a7.42,7.42,0,0,1,4.1,1.12c1.16.74,1.73,2.12,1.73,4.14s-.57,3.34-1.73,4.1a7.9,7.9,0,0,1-8.24,0C435.6,377.33,435,376,435,374s.56-3.4,1.69-4.14A7.4,7.4,0,0,1,440.87,368.73Zm5.33,15.41v39.31H435.47V384.14Z" transform="translate(-53.69 -325.85)" style="fill:#fff"></path>
  <path d="M477,392.21h-9.29v31.24H457V392.21h-5.91V387l5.91-2.88v-2.88q0-5,1.69-7.81a9.1,9.1,0,0,1,4.82-3.92,21.33,21.33,0,0,1,7.38-1.16,29.49,29.49,0,0,1,5.73.51,22.44,22.44,0,0,1,4.13,1.15L478,377.88c-.82-.24-1.7-.47-2.66-.69a15.71,15.71,0,0,0-3.32-.32,3.84,3.84,0,0,0-3.27,1.37,5.49,5.49,0,0,0-1,3.45v2.45H477Z" transform="translate(-53.69 -325.85)" style="fill:#fff"></path>
  <path d="M475.36,384.14h11.73l7.42,22.11a18.94,18.94,0,0,1,.86,3.27c.19,1.13.34,2.32.43,3.57H496a31.58,31.58,0,0,1,.61-3.57c.26-1.12.57-2.22.9-3.27l7.27-22.11h11.52l-16.63,44.35a18.81,18.81,0,0,1-6.51,9.18,16.61,16.61,0,0,1-9.9,3.06,23.87,23.87,0,0,1-3.14-.18q-1.33-.18-2.34-.39v-8.5c.53.1,1.17.19,1.91.29a17.62,17.62,0,0,0,2.34.14,7.12,7.12,0,0,0,5.37-2,12.54,12.54,0,0,0,2.91-4.93l.65-1.94Z" transform="translate(-53.69 -325.85)" style="fill:#fff"></path>
</svg>
